<svg class="diagram-root" style="background: #f5f6f6" xmlns="http://www.w3.org/2000/svg" xmlns:xlink="http://www.w3.org/1999/xlink"><style>.diagram-root { font-family: "Helvetica Neue", sans-serif; font-size: 12px; } .t { overflow: visible; } .t-bg { y: 40; fill: #fff;   } .th { fill: #005aa0;   } .tht { fill: #fff; font-size: 14px;  } .tf { fill: #323c46; overflow: visible; } .tf.pk { fill: #005aa0; font-weight: bold; } .tf.fk { font-weight: bold; } .ty { fill: #adb1b5; font-weight: normal; text-anchor: end; } .r { fill: transparent; stroke: #c3c3c3; stroke-width: 1; } .l { stroke: 1; } .i { fill: #c2c7ce; stroke: #c2c7ce; } .i.ix { fill: #afb3b6; stroke: #000; } .fa { fill: transparent; overflow: visible; } .fa .bg.hover { fill: #f7f7f7; } .c { cy: 12; r: 4; stroke: #d2d2dc; fill: #d2d2dc; } .hr { fill: transparent; stroke: #323c46; stroke-opacity: 0.035; stroke-width: 13; } .dc { stroke: #fa5a3c; fill: #fa5a3c; } .x { stroke: white; stroke-width: 1; } .hl .th { fill: #1b9bff; } .hl .tht {  } .fhl .bg { fill: #e7f4ff; } .fhls .bg {  } .r.hl { stroke: #1b9bff; } .dim { opacity: 0.25; }</style><g class="drawing-wrapper" transform="translate(518.4300000000001, 248.57) scale(1,1)"><g class="rs"><path d="M -127.25 -84.71000000000001 m -1, 0 a 1,1 0 1,0 2,0 a 1,1 0 1,0 -2,0 M -127.25 -84.71000000000001 m -0.5, 0 a 0.5,0.5 0 1,0 1,0 a 0.5,0.5 0 1,0 -1,0  M-127.25 -84.71000000000001 L-127.25 -84.71000000000001 -115.25 -84.71000000000001 M -127.25 -78.71000000000001 m -1, 0 a 1,1 0 1,0 2,0 a 1,1 0 1,0 -2,0 M -127.25 -78.71000000000001 m -0.5, 0 a 0.5,0.5 0 1,0 1,0 a 0.5,0.5 0 1,0 -1,0  M-127.25 -78.71000000000001 L-127.25 -78.71000000000001 -120.25 -84.71000000000001 -127.25 -90.71000000000001 M -127.25 -90.71000000000001 m -1, 0 a 1,1 0 1,0 2,0 a 1,1 0 1,0 -2,0 M -127.25 -90.71000000000001 m -0.5, 0 a 0.5,0.5 0 1,0 1,0 a 0.5,0.5 0 1,0 -1,0  M-115.25 -84.71000000000001 Q -89.24 -84.71000000000001, -63.23 -7.46 T -11.21 69.78999999999999 M 0.79 69.78999999999999 m -1, 0 a 1,1 0 1,0 2,0 a 1,1 0 1,0 -2,0 M 0.79 69.78999999999999 m -0.5, 0 a 0.5,0.5 0 1,0 1,0 a 0.5,0.5 0 1,0 -1,0  M0.79 69.78999999999999 L0.79 69.78999999999999 -11.21 69.78999999999999 M-5.21 75.78999999999999 L-5.21 75.78999999999999 -5.21 63.78999999999999" id="h1139284389" class="r"></path><path d="M -127.25 -59.71000000000001 m -1, 0 a 1,1 0 1,0 2,0 a 1,1 0 1,0 -2,0 M -127.25 -59.71000000000001 m -0.5, 0 a 0.5,0.5 0 1,0 1,0 a 0.5,0.5 0 1,0 -1,0  M-127.25 -59.71000000000001 L-127.25 -59.71000000000001 -115.25 -59.71000000000001 M -127.25 -53.71000000000001 m -1, 0 a 1,1 0 1,0 2,0 a 1,1 0 1,0 -2,0 M -127.25 -53.71000000000001 m -0.5, 0 a 0.5,0.5 0 1,0 1,0 a 0.5,0.5 0 1,0 -1,0  M-127.25 -53.71000000000001 L-127.25 -53.71000000000001 -120.25 -59.71000000000001 -127.25 -65.71000000000001 M -127.25 -65.71000000000001 m -1, 0 a 1,1 0 1,0 2,0 a 1,1 0 1,0 -2,0 M -127.25 -65.71000000000001 m -0.5, 0 a 0.5,0.5 0 1,0 1,0 a 0.5,0.5 0 1,0 -1,0  M-115.25 -59.71000000000001 C -65.25 -59.71000000000001, 53.81999999999999 -161.57, -313.7 -161.57 M -325.7 -161.57 m -1, 0 a 1,1 0 1,0 2,0 a 1,1 0 1,0 -2,0 M -325.7 -161.57 m -0.5, 0 a 0.5,0.5 0 1,0 1,0 a 0.5,0.5 0 1,0 -1,0  M-325.7 -161.57 L-325.7 -161.57 -313.7 -161.57 M-319.7 -155.57 L-319.7 -155.57 -319.7 -167.57" id="h1607168654" class="r"></path><path d="M -146.57 -7.140000000000001 m -1, 0 a 1,1 0 1,0 2,0 a 1,1 0 1,0 -2,0 M -146.57 -7.140000000000001 m -0.5, 0 a 0.5,0.5 0 1,0 1,0 a 0.5,0.5 0 1,0 -1,0  M-146.57 -7.140000000000001 L-146.57 -7.140000000000001 -158.57 -7.140000000000001 M -146.57 -1.1400000000000006 m -1, 0 a 1,1 0 1,0 2,0 a 1,1 0 1,0 -2,0 M -146.57 -1.1400000000000006 m -0.5, 0 a 0.5,0.5 0 1,0 1,0 a 0.5,0.5 0 1,0 -1,0  M-146.57 -1.1400000000000006 L-146.57 -1.1400000000000006 -153.57 -7.140000000000001 -146.57 -13.14 M -146.57 -13.14 m -1, 0 a 1,1 0 1,0 2,0 a 1,1 0 1,0 -2,0 M -146.57 -13.14 m -0.5, 0 a 0.5,0.5 0 1,0 1,0 a 0.5,0.5 0 1,0 -1,0  M-158.57 -7.140000000000001 Q -197.35 -7.140000000000001, -236.13 -84.35 T -313.7 -161.57 M -325.7 -161.57 m -1, 0 a 1,1 0 1,0 2,0 a 1,1 0 1,0 -2,0 M -325.7 -161.57 m -0.5, 0 a 0.5,0.5 0 1,0 1,0 a 0.5,0.5 0 1,0 -1,0  M-325.7 -161.57 L-325.7 -161.57 -313.7 -161.57 M-319.7 -155.57 L-319.7 -155.57 -319.7 -167.57" id="h1397587031" class="r"></path><path d="M -146.57 17.86 m -1, 0 a 1,1 0 1,0 2,0 a 1,1 0 1,0 -2,0 M -146.57 17.86 m -0.5, 0 a 0.5,0.5 0 1,0 1,0 a 0.5,0.5 0 1,0 -1,0  M-146.57 17.86 L-146.57 17.86 -158.57 17.86 M -146.57 23.86 m -1, 0 a 1,1 0 1,0 2,0 a 1,1 0 1,0 -2,0 M -146.57 23.86 m -0.5, 0 a 0.5,0.5 0 1,0 1,0 a 0.5,0.5 0 1,0 -1,0  M-146.57 23.86 L-146.57 23.86 -153.57 17.86 -146.57 11.86 M -146.57 11.86 m -1, 0 a 1,1 0 1,0 2,0 a 1,1 0 1,0 -2,0 M -146.57 11.86 m -0.5, 0 a 0.5,0.5 0 1,0 1,0 a 0.5,0.5 0 1,0 -1,0  M-158.57 17.86 C -208.57 17.86, -296.986 69.78999999999999, -11.21 69.78999999999999 M 0.79 69.78999999999999 m -1, 0 a 1,1 0 1,0 2,0 a 1,1 0 1,0 -2,0 M 0.79 69.78999999999999 m -0.5, 0 a 0.5,0.5 0 1,0 1,0 a 0.5,0.5 0 1,0 -1,0  M0.79 69.78999999999999 L0.79 69.78999999999999 -11.21 69.78999999999999 M-5.21 75.78999999999999 L-5.21 75.78999999999999 -5.21 63.78999999999999" id="h2286254435" class="r"></path><path d="M 169.29 94.78999999999999 m -1, 0 a 1,1 0 1,0 2,0 a 1,1 0 1,0 -2,0 M 169.29 94.78999999999999 m -0.5, 0 a 0.5,0.5 0 1,0 1,0 a 0.5,0.5 0 1,0 -1,0  M169.29 94.78999999999999 L169.29 94.78999999999999 181.29 94.78999999999999 M 169.29 100.78999999999999 m -1, 0 a 1,1 0 1,0 2,0 a 1,1 0 1,0 -2,0 M 169.29 100.78999999999999 m -0.5, 0 a 0.5,0.5 0 1,0 1,0 a 0.5,0.5 0 1,0 -1,0  M169.29 100.78999999999999 L169.29 100.78999999999999 176.29 94.78999999999999 169.29 88.78999999999999 M 169.29 88.78999999999999 m -1, 0 a 1,1 0 1,0 2,0 a 1,1 0 1,0 -2,0 M 169.29 88.78999999999999 m -0.5, 0 a 0.5,0.5 0 1,0 1,0 a 0.5,0.5 0 1,0 -1,0  M181.29 94.78999999999999 Q 218.47 94.78999999999999, 255.65 215.4 T 330 336 M 342 336 m -1, 0 a 1,1 0 1,0 2,0 a 1,1 0 1,0 -2,0 M 342 336 m -0.5, 0 a 0.5,0.5 0 1,0 1,0 a 0.5,0.5 0 1,0 -1,0  M342 336 L342 336 330 336 M336 342 L336 342 336 330" id="h1537058300" class="r"></path><path d="M 328.04 225 m -1, 0 a 1,1 0 1,0 2,0 a 1,1 0 1,0 -2,0 M 328.04 225 m -0.5, 0 a 0.5,0.5 0 1,0 1,0 a 0.5,0.5 0 1,0 -1,0  M328.04 225 L328.04 225 340.04 225 M 328.04 231 m -1, 0 a 1,1 0 1,0 2,0 a 1,1 0 1,0 -2,0 M 328.04 231 m -0.5, 0 a 0.5,0.5 0 1,0 1,0 a 0.5,0.5 0 1,0 -1,0  M328.04 231 L328.04 231 335.04 225 328.04 219 M 328.04 219 m -1, 0 a 1,1 0 1,0 2,0 a 1,1 0 1,0 -2,0 M 328.04 219 m -0.5, 0 a 0.5,0.5 0 1,0 1,0 a 0.5,0.5 0 1,0 -1,0  M340.04 225 C 390.04 225, 485.2900000000001 69.78999999999999, 181.29 69.78999999999999 M 169.29 69.78999999999999 m -1, 0 a 1,1 0 1,0 2,0 a 1,1 0 1,0 -2,0 M 169.29 69.78999999999999 m -0.5, 0 a 0.5,0.5 0 1,0 1,0 a 0.5,0.5 0 1,0 -1,0  M169.29 69.78999999999999 L169.29 69.78999999999999 181.29 69.78999999999999 M175.29 75.78999999999999 L175.29 75.78999999999999 175.29 63.78999999999999" id="h3177548053" class="r"></path></g><g class="hrs"></g><g class="ts"><svg width="170.73" height="100" x="-496.43" y="-218.57" id="h475896179" class="t"><rect height="40" width="170.73" class="th"></rect><text x="13" y="25" class="tht">departments</text><rect height="60" width="170.73" class="t-bg"></rect><text x="13" y="61" class="tf pk">dept_no<tspan x="157.73" class="ty">varchar(30)</tspan></text><path d="M7,14A2,2 0 0,1 5,12A2,2 0 0,1 7,10A2,2 0 0,1 9,12A2,2 0 0,1 7,14M12.65,10C11.83,7.67 9.61,6 7, 6A6, 6 0 0, 0 1, 12A6, 6 0 0, 0 7, 18C9.61, 18 11.83, 16.33 12.65, 14H17V18H21V14H23V10H12.65Z" class="i pk" transform="translate(76.37648437499999, 48) scale(0.65)"></path><text x="13" y="86" class="tf">dept_name<tspan x="157.73" class="ty">varchar(30)</tspan></text></svg><svg width="149.39" height="100" x="-276.64" y="-141.71" id="h1090417462" class="t"><rect height="40" width="149.39" class="th"></rect><text x="13" y="25" class="tht">dept_emp</text><rect height="60" width="149.39" class="t-bg"></rect><text x="13" y="61" class="tf pk">emp_no<tspan x="136.39" class="ty">int</tspan></text><path d="M7,14A2,2 0 0,1 5,12A2,2 0 0,1 7,10A2,2 0 0,1 9,12A2,2 0 0,1 7,14M12.65,10C11.83,7.67 9.61,6 7, 6A6, 6 0 0, 0 1, 12A6, 6 0 0, 0 7, 18C9.61, 18 11.83, 16.33 12.65, 14H17V18H21V14H23V10H12.65Z" class="i pk" transform="translate(103.71617187499999, 48) scale(0.65)"></path><text x="13" y="86" class="tf pk">dept_no<tspan x="136.39" class="ty">varchar</tspan></text><path d="M7,14A2,2 0 0,1 5,12A2,2 0 0,1 7,10A2,2 0 0,1 9,12A2,2 0 0,1 7,14M12.65,10C11.83,7.67 9.61,6 7, 6A6, 6 0 0, 0 1, 12A6, 6 0 0, 0 7, 18C9.61, 18 11.83, 16.33 12.65, 14H17V18H21V14H23V10H12.65Z" class="i pk" transform="translate(76.37632812499999, 73) scale(0.65)"></path></svg><svg width="149.39" height="100" x="-146.57" y="-64.14" id="h1676682957" class="t"><rect height="40" width="149.39" class="th"></rect><text x="13" y="25" class="tht">dept_manager</text><rect height="60" width="149.39" class="t-bg"></rect><text x="13" y="61" class="tf pk">dept_no<tspan x="136.39" class="ty">varchar</tspan></text><path d="M7,14A2,2 0 0,1 5,12A2,2 0 0,1 7,10A2,2 0 0,1 9,12A2,2 0 0,1 7,14M12.65,10C11.83,7.67 9.61,6 7, 6A6, 6 0 0, 0 1, 12A6, 6 0 0, 0 7, 18C9.61, 18 11.83, 16.33 12.65, 14H17V18H21V14H23V10H12.65Z" class="i pk" transform="translate(76.37632812499999, 48) scale(0.65)"></path><text x="13" y="86" class="tf pk">emp_no<tspan x="136.39" class="ty">int</tspan></text><path d="M7,14A2,2 0 0,1 5,12A2,2 0 0,1 7,10A2,2 0 0,1 9,12A2,2 0 0,1 7,14M12.65,10C11.83,7.67 9.61,6 7, 6A6, 6 0 0, 0 1, 12A6, 6 0 0, 0 7, 18C9.61, 18 11.83, 16.33 12.65, 14H17V18H21V14H23V10H12.65Z" class="i pk" transform="translate(103.71617187499999, 73) scale(0.65)"></path></svg><svg width="168.5" height="225" x="0.79" y="12.79" id="h1639608377" class="t"><rect height="40" width="168.5" class="th"></rect><text x="13" y="25" class="tht">employees</text><rect height="185" width="168.5" class="t-bg"></rect><text x="13" y="61" class="tf pk">emp_no<tspan x="155.5" class="ty">int</tspan></text><path d="M7,14A2,2 0 0,1 5,12A2,2 0 0,1 7,10A2,2 0 0,1 9,12A2,2 0 0,1 7,14M12.65,10C11.83,7.67 9.61,6 7, 6A6, 6 0 0, 0 1, 12A6, 6 0 0, 0 7, 18C9.61, 18 11.83, 16.33 12.65, 14H17V18H21V14H23V10H12.65Z" class="i pk" transform="translate(122.826171875, 48) scale(0.65)"></path><text x="13" y="86" class="tf fk">emp_title_id<tspan x="155.5" class="ty">VARCHAR</tspan></text><text x="13" y="111" class="tf">birth_date<tspan x="155.5" class="ty">date</tspan></text><text x="13" y="136" class="tf">first_name<tspan x="155.5" class="ty">varchar(30)</tspan></text><text x="13" y="161" class="tf">last_name<tspan x="155.5" class="ty">varchar(30)</tspan></text><text x="13" y="186" class="tf">sex<tspan x="155.5" class="ty">varchar(30)</tspan></text><text x="13" y="211" class="tf">hire_date<tspan x="155.5" class="ty">date</tspan></text></svg><svg width="122.04" height="100" x="206" y="168" id="h2472833127" class="t"><rect height="40" width="122.04" class="th"></rect><text x="13" y="25" class="tht">salaries</text><rect height="60" width="122.04" class="t-bg"></rect><text x="13" y="61" class="tf pk">emp_no<tspan x="109.04" class="ty">int</tspan></text><path d="M7,14A2,2 0 0,1 5,12A2,2 0 0,1 7,10A2,2 0 0,1 9,12A2,2 0 0,1 7,14M12.65,10C11.83,7.67 9.61,6 7, 6A6, 6 0 0, 0 1, 12A6, 6 0 0, 0 7, 18C9.61, 18 11.83, 16.33 12.65, 14H17V18H21V14H23V10H12.65Z" class="i pk" transform="translate(76.366171875, 48) scale(0.65)"></path><text x="13" y="86" class="tf">salary<tspan x="109.04" class="ty">int</tspan></text></svg><svg width="162.04" height="100" x="342" y="279" id="h311790747" class="t"><rect height="40" width="162.04" class="th"></rect><text x="13" y="25" class="tht">titles</text><rect height="60" width="162.04" class="t-bg"></rect><text x="13" y="61" class="tf pk">title_id<tspan x="149.04" class="ty">varchar(30)</tspan></text><path d="M7,14A2,2 0 0,1 5,12A2,2 0 0,1 7,10A2,2 0 0,1 9,12A2,2 0 0,1 7,14M12.65,10C11.83,7.67 9.61,6 7, 6A6, 6 0 0, 0 1, 12A6, 6 0 0, 0 7, 18C9.61, 18 11.83, 16.33 12.65, 14H17V18H21V14H23V10H12.65Z" class="i pk" transform="translate(67.68648437499999, 48) scale(0.65)"></path><text x="13" y="86" class="tf">titles<tspan x="149.04" class="ty">varchar(30)</tspan></text></svg></g></g><text class="qdbd-link" x="10" y="20">www.quickdatabasediagrams.com</text></svg>